<svg xmlns="http://www.w3.org/2000/svg" viewBox="0 0 64 64" width="64" height="64" role="img" aria-label="Fuoco">
  <defs>
    <linearGradient id="bg" x1="0" y1="0" x2="1" y2="1">
      <stop offset="0%" stop-color="#1c1209"/>
      <stop offset="100%" stop-color="#0d0b08"/>
    </linearGradient>
    <linearGradient id="fl" x1="0.45" y1="1" x2="0.55" y2="0">
      <stop offset="0%"   stop-color="#b82000"/>
      <stop offset="40%"  stop-color="#e8420a"/>
      <stop offset="78%"  stop-color="#ff7030"/>
      <stop offset="100%" stop-color="#ffd060"/>
    </linearGradient>
    <linearGradient id="core" x1="0.5" y1="1" x2="0.5" y2="0">
      <stop offset="0%"   stop-color="#ff6020" stop-opacity="0"/>
      <stop offset="100%" stop-color="#fff0a0" stop-opacity="0.65"/>
    </linearGradient>
    <filter id="glow" x="-30%" y="-30%" width="160%" height="160%">
      <feGaussianBlur in="SourceGraphic" stdDeviation="2" result="b"/>
      <feMerge><feMergeNode in="b"/><feMergeNode in="SourceGraphic"/></feMerge>
    </filter>
  </defs>

  <rect width="64" height="64" rx="14" fill="url(#bg)"/>
  <rect width="64" height="64" rx="14" fill="none" stroke="#d4a047" stroke-width="1" stroke-opacity="0.28"/>

  <g filter="url(#glow)">
    <path d="M32 7 C30 10 25 12 25.5 18 C21 15 18 20 21 25 C17 22 15 28 18.5 33 C16 31 15.5 37 19 40 C21.5 44 26 47 32 47 C38 47 42.5 44 45 40 C48.5 37 48 31 45.5 33 C49 28 47 22 43 25 C46 20 43 15 38.5 18 C39 12 34 10 32 7Z" fill="url(#fl)"/>
    <path d="M32 16 C31 18 28.5 20 29 24 C27 22 26 25.5 28 28 C26.5 27 25.5 31 27 34 C28.5 37 30 39 32 39 C34 39 35.5 37 37 34 C38.5 31 37.5 27 36 28 C38 25.5 37 22 35 24 C35.5 20 33 18 32 16Z" fill="url(#core)"/>
  </g>

  <circle cx="32" cy="51" r="2.2" fill="#e8420a" opacity="0.5"/>
</svg>
